<svg xmlns="http://www.w3.org/2000/svg" viewBox="0 0 80 80"><defs><style>.cls-1{fill:none;stroke:#253948;stroke-linecap:round;stroke-linejoin:round;stroke-width:1.25px;}.cls-2{fill:#253948;}</style></defs><g id="Layer_1" data-name="Layer 1"><path class="cls-1" d="M21.41,32.08V46.46a18.52,18.52,0,1,0,37,0V32.07"/><path class="cls-1" d="M48.84,25.8c5.73,1.21,9.61,3.57,9.61,6.27,0,3.94-8.29,7.14-18.52,7.14S21.41,36,21.41,32.07s8.29-7.15,18.52-7.15a46.67,46.67,0,0,1,5.54.32"/><path class="cls-2" d="M56.61,35.18c-3-2.43-9.36-4.12-16.78-4.12s-13.68,1.65-16.68,4c3,2.43,9.36,4.11,16.78,4.11S53.61,37.57,56.61,35.18Z"/><path class="cls-1" d="M58.45,33.73h1.49a9.06,9.06,0,0,1,0,18.12H57.66"/><path class="cls-1" d="M58.45,36.24H60a6.55,6.55,0,0,1,0,13.09H58.2"/><path class="cls-1" d="M54.13,14c2.7,1.25,4.32,2.85,4.32,4.6,0,1.59-1.35,3.06-3.63,4.25"/><path class="cls-1" d="M24.79,22.69c-2.13-1.16-3.38-2.58-3.38-4.11,0-3.95,8.29-7.15,18.52-7.15a43.07,43.07,0,0,1,9.6,1"/><path class="cls-1" d="M54.83,5.39c-1.44-.54-3-.08-3.37,1a2.5,2.5,0,0,0-.07.26l-9,28.38,2.06.17L56.69,8.36C57.1,7.26,56.27,5.93,54.83,5.39Z"/><polyline class="cls-1" points="22.05 22.63 25.03 22.91 23.82 20.29"/></g></svg>