<svg xmlns="http://www.w3.org/2000/svg" viewBox="0 0 230 230"><defs><style>.cls-1{fill:#253948;}.cls-2,.cls-3{fill:none;stroke-linecap:round;stroke-linejoin:round;}.cls-2{stroke:#253948;stroke-width:1.25px;}.cls-3{stroke:#000;stroke-width:1.22px;}</style></defs><g id="Layer_1" data-name="Layer 1"><path class="cls-1" d="M77.59,56.66s2.52-8.55,5.67-8.81c4.13-.34,2.95,8.27,4.25,7s2-4,6.5-3.9,7.56,6,15.61,5.1c7.53-.82,12.29-8.16,12.29-8.16s-1.37,2.1.7,5.64a37.48,37.48,0,0,0,6.44,8.87l5.28,5.28S148.65,47,125.28,30.83c-20-13.87-42.46,1.65-46.38,20Z"/><polygon class="cls-2" points="100.18 187.39 113.49 196.78 132.59 186.05 119.75 177.25 100.18 187.39"/><path class="cls-2" d="M147.58,175.45s13.65-9.89,18-27.27"/><path class="cls-2" d="M142.19,172.65s13.64-9.89,18-27.27"/><path class="cls-2" d="M137.93,169.85s13.64-9.89,18-27.27"/><path class="cls-2" d="M133.66,167s13.65-9.87,18-27.25"/><path class="cls-2" d="M168.88,162.46s8.92,6.41,3.79,10.71c-4.61,3.87-12.24.87-12.24.87"/><path class="cls-2" d="M83.13,40.7A29.58,29.58,0,0,1,109,25.77c16.27,0,29.45,12.77,29.45,28.53a27.54,27.54,0,0,1-8,18.77s-13.3,29-37.23,15.28C64.39,71.78,83.13,40.7,83.13,40.7Z"/><path class="cls-2" d="M134.33,67.64l-5.06-5.06c-3.68-3.68-9.2-11-7.36-14.73-1.84,3.68-11.59,12-22.09,5.53-2.77-1.71-7.36-5.53-12.88,1.84,0,0,0-7.37-3.68-7.37s-6,11.18-6,11.18"/><path class="cls-2" d="M97.92,90.56c5.41.84,3.74-5.89,3.74-5.89h3.68s-1.84-5.52,0-3.69A5.68,5.68,0,0,0,109,82.83c0-1.85,0-7.36,1.85-5.53a5.67,5.67,0,0,0,3.67,1.85c0-1.85-1.83-7.37,3.69-11.05a18.33,18.33,0,0,0,7-9.82"/><path class="cls-2" d="M116.39,77.3a7.36,7.36,0,1,0,7.36-7.36A7.36,7.36,0,0,0,116.39,77.3Z"/><path class="cls-2" d="M98,66.26a7.37,7.37,0,1,0,7.36-7.36A7.37,7.37,0,0,0,98,66.26Z"/><path class="cls-2" d="M117.46,73.47s.77-5.37-5.06-4.44"/><line class="cls-2" x1="98.9" y1="61.81" x2="88.8" y2="53.25"/><path class="cls-2" d="M127,83.93c2.63,5.38,8.25,21.36-1.13,46.75-1.56,4.21-3.52,13.58-.91,20.25"/><path class="cls-2" d="M107.27,92.05c-.28,1.76-1.56,8.67-5.15,12.86-7.13-6-10.92-17.8-10.92-17.8"/><path class="cls-2" d="M114.3,90.15a39.31,39.31,0,0,1,1.4,13.38s-4.25-2-5.76-1.84c-2,.17-7.13,3.68-7.13,3.68s-7.08-3.83-9.66-3.68c-1.75.1-6.21,3.22-6.21,3.22s-12.2-16.33-9-34.28"/><path class="cls-2" d="M102.81,105.37a71.42,71.42,0,0,1-4.6,25.08c-5.91,16.08-3.95,25.88.62,36.34"/><path class="cls-2" d="M82.77,188.55l26.94,18.51a421.88,421.88,0,0,0,40.73-24.15c19.09-13.12,26.22-37.51,26.22-37.51L142.38,127a75.89,75.89,0,0,1-9.2,14.72c-5.52,6.67-15,17.35-25.54,21.62A220.17,220.17,0,0,0,86.9,173"/><line class="cls-2" x1="147.58" y1="184.83" x2="112.24" y2="161.51"/><polyline class="cls-2" points="174.19 169.29 183.34 163.58 172.22 156.29"/><line class="cls-2" x1="147.58" y1="184.83" x2="164.25" y2="174.99"/><path class="cls-2" d="M139.3,132.83s-3.59-1.92-2-13c1.53-10.46,2.7-27.62-9.34-36.54"/><path class="cls-2" d="M86.41,122.35H63.54S60,145.17,76.05,143.78c10.72-.94,11.12-12.77,10.63-18.71C86.52,123.05,86.41,122.35,86.41,122.35Z"/><path class="cls-2" d="M77.65,67.89s-44.6-1-45,61c-.09,14.2,2.79,37.95,31.52,47.24"/><path class="cls-2" d="M85.4,171.17s1.89,3.19,7.67,7.06c2,1.35,2.41,5-9,3.6"/><path class="cls-2" d="M65.21,180.13a13.21,13.21,0,0,1,0-10.18c3.17-8.06,10.83-10.52,20.24-5.22,4.91,2.76,4.28,6.64,4.28,6.64"/><path class="cls-2" d="M91.42,182.15c-1.2,1.65-7.11,8.92-16.26,6.2"/><path class="cls-2" d="M73.44,161.94S49.51,147,56,116.42c1.73-7.62,13.34-31.19-3.53-39.17"/><path class="cls-2" d="M188,222.1l26.24-11.44s-5.53-4.15-1.38-9.87"/><line class="cls-2" x1="185.1" y1="216.46" x2="211.27" y2="204.84"/><line class="cls-2" x1="186.03" y1="219.61" x2="212.22" y2="208.38"/><path class="cls-2" d="M155.32,204.58,188,222.1s-6.14-5.52-.56-10.85l25.42-10.46-32.09-16.44-25.92,8.73s-4.13,2.13-1.45,9.24A4.28,4.28,0,0,0,155.32,204.58Z"/><line class="cls-2" x1="154.8" y1="193.08" x2="187.35" y2="211.32"/><line class="cls-2" x1="63.22" y1="126.39" x2="86.74" y2="126.39"/><path class="cls-2" d="M74.82,190.59c7.19,2.85,11.76,7.12,11.76,11.9"/><path class="cls-2" d="M86.58,202.49c0,8.57-14.68,15.51-32.79,15.51S21,211.06,21,202.49c0-4.89,4.78-9.25,12.26-12.09"/><ellipse class="cls-2" cx="54.06" cy="185.42" rx="21.24" ry="6.21"/><path class="cls-1" d="M70.82,189.23c-3.89,1.46-9.95,2.4-16.76,2.4s-13.11-1-17-2.48h0A62.32,62.32,0,0,1,53.79,187a62.26,62.26,0,0,1,17,2.25Z"/><path class="cls-2" d="M75.19,188.24a21.24,21.24,0,0,1-42.37-2.17v-.46"/><path class="cls-2" d="M75.29,185.61v.46a19.34,19.34,0,0,1-.11,2.17"/><path class="cls-2" d="M203,117.26s-.11-4.77,0-11.89-4.41-8.57-5.46-2.63c-.7,4-4,7.13-2.94-5.09,1.67-19.17.39-26.3-5.89-26.39-6.59-.1-2.21,18.24-6.84,19.07-4.1.75-3.83-4.33-3.93-7.82-.21-7.11-.69-11-4.69-11.25-5-.27-4,11.07-8.43,11.07S160,77.46,161,72.66c1.82-9.18-7.16-11.84-8.09-5.56-.64,4.38,3.34,18.34-2.36,17.57s-4-10.33-9.64-9.2c-5.19,1,1.12,14-2.81,15.72C136,92.1,133,88.38,133,88.38"/><polyline class="cls-2" points="172.54 155.65 203.03 155.65 203.03 122.4"/><path class="cls-3" d="M137.09,122.4h68.22a2.21,2.21,0,0,0,2.21-2.21h0a2.21,2.21,0,0,0-2.21-2.22H137.7"/></g></svg>